<?xml version="1.0" encoding="UTF-8" standalone="no"?>
<!-- Created with Inkscape (http://www.inkscape.org/) -->

<svg
   xmlns:dc="http://purl.org/dc/elements/1.1/"
   xmlns:cc="http://creativecommons.org/ns#"
   xmlns:rdf="http://www.w3.org/1999/02/22-rdf-syntax-ns#"
   xmlns:svg="http://www.w3.org/2000/svg"
   xmlns="http://www.w3.org/2000/svg"
   xmlns:sodipodi="http://sodipodi.sourceforge.net/DTD/sodipodi-0.dtd"
   xmlns:inkscape="http://www.inkscape.org/namespaces/inkscape"
   id="svg2"
   version="1.1"
   inkscape:version="0.48.3.1 r9886"
   width="76.430191"
   height="76.018005"
   sodipodi:docname="logo_small.svg"
   inkscape:export-filename="/volatile/varoquau/work/admin/projects/human_brain_project/logo_small.png"
   inkscape:export-xdpi="471.01999"
   inkscape:export-ydpi="471.01999">
  <metadata
     id="metadata8">
    <rdf:RDF>
      <cc:Work
         rdf:about="">
        <dc:format>image/svg+xml</dc:format>
        <dc:type
           rdf:resource="http://purl.org/dc/dcmitype/StillImage" />
        <dc:title></dc:title>
      </cc:Work>
    </rdf:RDF>
  </metadata>
  <defs
     id="defs6" />
  <sodipodi:namedview
     pagecolor="#ffffff"
     bordercolor="#666666"
     borderopacity="1"
     objecttolerance="10"
     gridtolerance="10"
     guidetolerance="10"
     inkscape:pageopacity="0"
     inkscape:pageshadow="2"
     inkscape:window-width="1920"
     inkscape:window-height="1175"
     id="namedview4"
     showgrid="false"
     inkscape:zoom="4.2247392"
     inkscape:cx="57.285328"
     inkscape:cy="35.323766"
     inkscape:window-x="0"
     inkscape:window-y="24"
     inkscape:window-maximized="1"
     inkscape:current-layer="svg2"
     fit-margin-top="0"
     fit-margin-left="0"
     fit-margin-right="0"
     fit-margin-bottom="0" />
  <path
     style="fill:#007ba5;fill-opacity:1"
     d="m 32.993854,74.655265 c -1.30795,-0.48642 -9.03262,-7.51507 -17.16594,-15.619231 C -4.9911061,38.291639 -5.0327461,37.180521 14.290254,18.012129 l 11.3076,-11.2171226 1.64326,4.2530916 c 0.90379,2.3392 4.18379,7.403093 7.28888,11.253093 9.44892,11.715713 10.096594,15.107613 5.19834,27.223969 -2.38505,5.899676 -3.28992,9.976499 -3.75,16.895259 -0.60444,9.089676 -0.61411,9.116356 -2.98448,8.234846 z m 5.87808,-6.50227 c 0,-8.982661 0.99978,-13.268322 4.177023,-17.905201 6.212651,-9.066772 15.184252,-8.383802 20.319588,1.546844 l 1.690071,3.268237 -6.843341,6.944291 C 49.512912,70.837905 44.948856,74.492795 41.562464,75.342725 l -2.69053,0.67528 0,-7.86501 z M 69.008322,45.068533 c -2.141528,-4.19774 -7.702213,-9.267342 -10.165055,-9.267342 -2.891869,0 -9.604934,-4.109724 -11.243178,-6.88305 -2.401561,-4.065519 -2.162356,-7.519903 0.880247,-12.711711 4.443548,-7.5823428 4.846302,-7.4949328 15.677688,3.402531 5.417326,5.450375 10.323054,11.356492 11.209116,13.494909 1.913581,4.618228 1.231645,9.252924 -1.948222,13.240858 L 71.126247,49.22001 69.008322,45.068533 z M 41.216944,15.97245 c 0.91025,-1.005807 1.65499,-3.186064 1.65499,-4.845013 0,-5.5037902 -5.92352,-8.1693952 -10.70764,-4.8184702 -1.97571,1.3838394 -2.2048,1.3434774 -2.78705,-0.491052 -0.88311,-2.782416 -0.0143,-3.783941 4.44021,-5.11854699 5.35056,-1.603066 10.076778,-0.461492 14.658639,3.54065499 l 3.895841,3.4029254 -4.962408,5.0791208 c -2.729325,2.793518 -5.611572,5.079122 -6.404992,5.079122 -1.17934,0 -1.14058,-0.333706 0.21241,-1.828741 z"
     id="path2987"
     inkscape:connector-curvature="0" />
</svg>
